<?xml version="1.0" encoding="UTF-8"?>
<svg version="1.1" xmlns="http://www.w3.org/2000/svg" width="456" height="65">
<path d="M0 0 C28.45454545 0 28.45454545 0 34.4375 5.0625 C36.94426286 9.77521418 37.79555162 14.89734867 36.453125 20.1328125 C35.32512741 22.8837454 34.10527278 24.89472722 32 27 C32.94875 27.61875 33.8975 28.2375 34.875 28.875 C38 31 38 31 40 33 C40.3403125 32.46890625 40.680625 31.9378125 41.03125 31.390625 C44.58573981 26.21014518 47.80830511 22.65664077 54 21 C60.44250286 20.16646863 66.61500028 20.2176724 72.30859375 23.6171875 C75.72453478 26.40989679 77.1371155 28.92494016 79 33 C79 36.3 79 39.6 79 43 C70.75 43 62.5 43 54 43 C54.690303 46.00281178 54.690303 46.00281178 56.625 47.25 C60.00959607 48.31881981 62.57412586 47.76130536 66 47 C66.99 46.01 66.99 46.01 68 45 C72.13263259 45.34438605 75.38108204 47.06429969 79 49 C76.92370897 54.07537807 74.77026993 56.31672316 70 59 C63.61057915 61.12980695 55.59990967 61.19604264 49.4375 58.3125 C46.22121796 56.40177008 44.01331868 54.18775458 42 51 C42 50.34 42 49.68 42 49 C41.34 49 40.68 49 40 49 C39.7525 50.0828125 39.7525 50.0828125 39.5 51.1875 C37.24230039 55.42068676 34.46622854 57.28641177 30 59 C24.81291247 59.60089852 19.71261178 59.4713868 14.5 59.3125 C9.715 59.209375 4.93 59.10625 0 59 C0 39.53 0 20.06 0 0 Z M14 12 C14 15.63 14 19.26 14 23 C16.64 22.34 19.28 21.68 22 21 C22.33 19.02 22.66 17.04 23 15 C19.59353476 11.9720309 18.9819505 12 14 12 Z M56 31 C55.34 32.32 54.68 33.64 54 35 C57.96 35 61.92 35 66 35 C65.34 33.68 64.68 32.36 64 31 C61.36 31 58.72 31 56 31 Z M14 36 C14 39.63 14 43.26 14 47 C19.96795446 47.40409629 19.96795446 47.40409629 25.5625 45.8125 C27.18842795 44.04514765 27.18842795 44.04514765 27.5 41.5 C27.18842795 38.95485235 27.18842795 38.95485235 25.5625 37.1875 C21.66280981 35.3803265 18.2730991 35.81148092 14 36 Z " fill="#F5F5F5" transform="translate(81,3)"/>
<path d="M0 0 C-2.29999593 4.19800142 -4.50884644 7.88469705 -7.75 11.4375 C-8.36359375 12.11683594 -8.9771875 12.79617188 -9.609375 13.49609375 C-10.06828125 13.99238281 -10.5271875 14.48867187 -11 15 C-9.38462556 18.89917968 -6.72075127 21.71293772 -3.875 24.75 C-3.40707031 25.25660156 -2.93914062 25.76320313 -2.45703125 26.28515625 C-1.30873459 27.52719141 -0.15491328 28.76411494 1 30 C-1.9826263 35.7266425 -5.62294157 40.26638344 -10 45 C-7.99717721 49.74294847 -4.40429671 52.9828749 -0.8984375 56.66015625 C1 59 1 59 1 62 C-17.66269488 63.21383381 -36.30859401 63.10300478 -55 63 C-55 58.79452429 -52.63261876 56.83289639 -50 53.8125 C-49.52304687 53.25369141 -49.04609375 52.69488281 -48.5546875 52.11914062 C-47.37633794 50.74047164 -46.18901048 49.36948528 -45 48 C-46.41680244 43.67953102 -48.53763785 40.99538801 -51.625 37.6875 C-52.44226563 36.80449219 -53.25953125 35.92148437 -54.1015625 35.01171875 C-54.72804688 34.34785156 -55.35453125 33.68398438 -56 33 C-54.58319756 28.67953102 -52.46236215 25.99538801 -49.375 22.6875 C-48.55773437 21.80449219 -47.74046875 20.92148437 -46.8984375 20.01171875 C-45.95871094 19.01591797 -45.95871094 19.01591797 -45 18 C-47.09710919 13.13747209 -50.705049 9.457466 -54.1015625 5.4609375 C-56 3 -56 3 -56 1 C-18.54823897 -0.19388403 -18.54823897 -0.19388403 0 0 Z " fill="#D2D2D2" transform="translate(79,1)"/>
<path d="M0 0 C4.72477331 1.66242024 7.25163159 3.82655167 10 8 C10.37092593 9.32336799 10.71183497 10.65618089 11 12 C11.3403125 11.46890625 11.680625 10.9378125 12.03125 10.390625 C15.58573981 5.21014518 18.80830511 1.65664077 25 0 C31.58197963 -0.85157688 37.55758249 -0.67815867 43.37890625 2.72265625 C46.88421511 5.4846707 48.61635259 8.84905776 50 13 C50 15.97 50 18.94 50 22 C37.625 22.495 37.625 22.495 25 23 C26.73574745 26.32164605 26.73574745 26.32164605 30.3125 26.875 C34.47143506 27.01598085 35.59511389 26.15045439 39 24 C42.98741425 24.19937071 45.70469694 25.83451513 49 28 C48.52525937 32.2726657 46.15665032 34.273802 43 37 C36.98602202 40.00175945 30.55684494 39.72606871 24 39 C18.69821327 37.03517245 15.18579028 33.64594416 12 29 C11.855625 30.299375 11.71125 31.59875 11.5625 32.9375 C11.125 36.875 11.125 36.875 10 38 C7.81360547 38.07258946 5.62499611 38.08373783 3.4375 38.0625 C1.64119141 38.04896484 1.64119141 38.04896484 -0.19140625 38.03515625 C-1.11824219 38.02355469 -2.04507813 38.01195312 -3 38 C-3.01458252 37.28344238 -3.02916504 36.56688477 -3.04418945 35.82861328 C-3.11849 32.59352017 -3.21520861 29.35947981 -3.3125 26.125 C-3.33505859 24.99707031 -3.35761719 23.86914062 -3.38085938 22.70703125 C-3.4340332 21.09248047 -3.4340332 21.09248047 -3.48828125 19.4453125 C-3.51446533 18.45031738 -3.54064941 17.45532227 -3.56762695 16.43017578 C-3.71031006 15.62821777 -3.85299316 14.82625977 -4 14 C-6.82462068 11.69212888 -6.82462068 11.69212888 -10.0625 12.125 C-13.05163023 12.67402371 -13.05163023 12.67402371 -14.15771484 14.74316406 C-15.09914728 17.26565722 -15.31572908 19.2965949 -15.4140625 21.984375 C-15.47207031 23.38623047 -15.47207031 23.38623047 -15.53125 24.81640625 C-15.57765625 26.26853516 -15.57765625 26.26853516 -15.625 27.75 C-15.68300781 29.22533203 -15.68300781 29.22533203 -15.7421875 30.73046875 C-15.8362797 33.15334289 -15.91922152 35.57664545 -16 38 C-20.29 38 -24.58 38 -29 38 C-29 25.79 -29 13.58 -29 1 C-24.71 1 -20.42 1 -16 1 C-15.67 1.66 -15.34 2.32 -15 3 C-14.38125 2.505 -13.7625 2.01 -13.125 1.5 C-8.70467044 -0.62175819 -4.82394337 -0.56524537 0 0 Z M27 10 C26.34 11.32 25.68 12.64 25 14 C28.96 14 32.92 14 37 14 C36.67 13.01 36.34 12.02 36 11 C33.04335481 9.5216774 30.25770263 9.93967217 27 10 Z " fill="#F4F4F4" transform="translate(190,24)"/>
<path d="M0 0 C4.29 0 8.58 0 13 0 C13.33 8.58 13.66 17.16 14 26 C15.65 25.01 17.3 24.02 19 23 C24.89307331 22.04739544 29.9577013 22.67946183 35 26 C37.4656856 28.04056739 37.95657975 28.86973924 39 32 C39.08358958 34.21089945 39.10731764 36.42426078 39.09765625 38.63671875 C39.09443359 39.93544922 39.09121094 41.23417969 39.08789062 42.57226562 C39.07953531 43.94401108 39.07107037 45.31575587 39.0625 46.6875 C39.05748335 48.07096195 39.05292073 49.45442563 39.04882812 50.83789062 C39.03702538 54.22527896 39.01908967 57.6126449 39 61 C34.71 61 30.42 61 26 61 C25.96261719 59.37449219 25.92523438 57.74898437 25.88671875 56.07421875 C25.82106894 53.94528904 25.75462126 51.81638383 25.6875 49.6875 C25.66494141 48.61564453 25.64238281 47.54378906 25.61914062 46.43945312 C25.5659668 44.89741211 25.5659668 44.89741211 25.51171875 43.32421875 C25.47244263 41.9024231 25.47244263 41.9024231 25.43237305 40.4519043 C25.17839498 37.96167996 25.17839498 37.96167996 23.65942383 36.15942383 C21.91835402 34.6936601 21.91835402 34.6936601 18.9375 35.125 C15.70744585 35.74650413 15.70744585 35.74650413 14 39 C13.6336141 41.41713479 13.6336141 41.41713479 13.5859375 44.10546875 C13.52792969 45.57983398 13.52792969 45.57983398 13.46875 47.08398438 C13.42234375 48.62022461 13.42234375 48.62022461 13.375 50.1875 C13.31699219 51.74114258 13.31699219 51.74114258 13.2578125 53.32617188 C13.16352131 55.88382027 13.08067082 58.44188578 13 61 C8.71 61 4.42 61 0 61 C0 40.87 0 20.74 0 0 Z " fill="#F9F9F9" transform="translate(415,1)"/>
<path d="M0 0 C0.54140625 0.32097656 1.0828125 0.64195313 1.640625 0.97265625 C1.970625 0.64265625 2.300625 0.31265625 2.640625 -0.02734375 C6.930625 -0.02734375 11.220625 -0.02734375 15.640625 -0.02734375 C15.640625 12.18265625 15.640625 24.39265625 15.640625 36.97265625 C11.350625 36.97265625 7.060625 36.97265625 2.640625 36.97265625 C2.640625 36.31265625 2.640625 35.65265625 2.640625 34.97265625 C1.8775 35.46765625 1.114375 35.96265625 0.328125 36.47265625 C-4.66650608 38.50437059 -9.03308755 38.68017802 -14.359375 37.97265625 C-19.25124406 35.61731189 -22.17016442 32.25531045 -25.359375 27.97265625 C-27.46357792 21.66004749 -27.53454263 13.63614818 -24.859375 7.47265625 C-19.67584637 -1.02257122 -9.17649572 -3.99572579 0 0 Z M-12.359375 14.97265625 C-13.19270833 18.47265625 -13.19270833 18.47265625 -12.359375 21.97265625 C-10.42811398 24.65104198 -10.42811398 24.65104198 -7.359375 25.97265625 C-3.86631711 25.91243111 -1.45571011 25.60923793 1.578125 23.84765625 C3.33359803 20.74976267 3.12786074 18.44421091 2.640625 14.97265625 C0.2470733 12.30555578 -1.34374483 11.17578228 -4.859375 10.47265625 C-8.37500517 11.17578228 -9.9658233 12.30555578 -12.359375 14.97265625 Z " fill="#F6F6F6" transform="translate(295.359375,25.02734375)"/>
<path d="M0 0 C4.92840387 2.20360915 6.51653384 4.2475572 8.66796875 9.31640625 C9.00854492 12.56787109 9.00854492 12.56787109 8.9609375 16.02734375 C8.94643555 17.89326172 8.94643555 17.89326172 8.93164062 19.796875 C8.90650391 21.08207031 8.88136719 22.36726563 8.85546875 23.69140625 C8.83516602 25.65400391 8.83516602 25.65400391 8.81445312 27.65625 C8.77919245 30.87672469 8.72990508 34.09635231 8.66796875 37.31640625 C6.52220238 37.34326563 4.3763423 37.36273713 2.23046875 37.37890625 C1.03550781 37.39050781 -0.15945313 37.40210938 -1.390625 37.4140625 C-4.33203125 37.31640625 -4.33203125 37.31640625 -5.33203125 36.31640625 C-5.4530846 34.63309007 -5.51162794 32.94518472 -5.54296875 31.2578125 C-5.57132812 30.23236328 -5.5996875 29.20691406 -5.62890625 28.15039062 C-5.68089223 25.97347786 -5.72519247 23.79636766 -5.76171875 21.61914062 C-5.79265625 20.59240234 -5.82359375 19.56566406 -5.85546875 18.5078125 C-5.87528809 17.56107666 -5.89510742 16.61434082 -5.91552734 15.63891602 C-6.05297363 14.87248779 -6.19041992 14.10605957 -6.33203125 13.31640625 C-9.0909876 11.02002846 -9.0909876 11.02002846 -11.89453125 11.56640625 C-14.48203692 12.15448677 -14.48203692 12.15448677 -16.33203125 14.31640625 C-16.70298833 16.7388722 -16.70298833 16.7388722 -16.74609375 19.54296875 C-16.80410156 21.08984375 -16.80410156 21.08984375 -16.86328125 22.66796875 C-16.89421875 23.74820313 -16.92515625 24.8284375 -16.95703125 25.94140625 C-17.01503906 27.57335938 -17.01503906 27.57335938 -17.07421875 29.23828125 C-17.16869372 31.9308179 -17.25425556 34.62334382 -17.33203125 37.31640625 C-19.47779762 37.34326563 -21.6236577 37.36273713 -23.76953125 37.37890625 C-24.96449219 37.39050781 -26.15945313 37.40210938 -27.390625 37.4140625 C-30.33203125 37.31640625 -30.33203125 37.31640625 -31.33203125 36.31640625 C-31.42058286 33.65014595 -31.44727798 31.00993511 -31.4296875 28.34375 C-31.42827255 27.54610733 -31.4268576 26.74846466 -31.42539978 25.926651 C-31.41978441 23.3690319 -31.40722937 20.81149907 -31.39453125 18.25390625 C-31.38951823 16.5240898 -31.38495498 14.79427199 -31.38085938 13.06445312 C-31.36981 8.81507072 -31.35253511 4.56575313 -31.33203125 0.31640625 C-25.66536458 0.31640625 -19.99869792 0.31640625 -14.33203125 0.31640625 C-10.04826073 -1.82547901 -4.50218028 -1.31973459 0 0 Z " fill="#F6F6F6" transform="translate(345.33203125,24.68359375)"/>
<path d="M0 0 C4.71347239 1.65844399 7.29999768 3.7999964 10 8 C10.93238821 11.60299812 11.12850886 14.99093085 11.1328125 18.703125 C11.13474609 20.29640625 11.13474609 20.29640625 11.13671875 21.921875 C11.13285156 23.02015625 11.12898438 24.1184375 11.125 25.25 C11.13080078 26.920625 11.13080078 26.920625 11.13671875 28.625 C11.13542969 29.68203125 11.13414062 30.7390625 11.1328125 31.828125 C11.13168457 32.7965332 11.13055664 33.76494141 11.12939453 34.76269531 C11 37 11 37 10 38 C7.81360547 38.07258946 5.62499611 38.08373783 3.4375 38.0625 C1.64119141 38.04896484 1.64119141 38.04896484 -0.19140625 38.03515625 C-1.11824219 38.02355469 -2.04507812 38.01195312 -3 38 C-3.01458252 37.28344238 -3.02916504 36.56688477 -3.04418945 35.82861328 C-3.11849 32.59352017 -3.21520861 29.35947981 -3.3125 26.125 C-3.33505859 24.99707031 -3.35761719 23.86914062 -3.38085938 22.70703125 C-3.4340332 21.09248047 -3.4340332 21.09248047 -3.48828125 19.4453125 C-3.51446533 18.45031738 -3.54064941 17.45532227 -3.56762695 16.43017578 C-3.71031006 15.62821777 -3.85299316 14.82625977 -4 14 C-6.82462068 11.69212888 -6.82462068 11.69212888 -10.0625 12.125 C-13.05163023 12.67402371 -13.05163023 12.67402371 -14.15771484 14.74316406 C-15.09914728 17.26565722 -15.31572908 19.2965949 -15.4140625 21.984375 C-15.47207031 23.38623047 -15.47207031 23.38623047 -15.53125 24.81640625 C-15.57765625 26.26853516 -15.57765625 26.26853516 -15.625 27.75 C-15.68300781 29.22533203 -15.68300781 29.22533203 -15.7421875 30.73046875 C-15.8362797 33.15334289 -15.91922152 35.57664545 -16 38 C-20.29 38 -24.58 38 -29 38 C-29 25.79 -29 13.58 -29 1 C-24.71 1 -20.42 1 -16 1 C-15.67 1.66 -15.34 2.32 -15 3 C-14.38125 2.505 -13.7625 2.01 -13.125 1.5 C-8.70467044 -0.62175819 -4.82394337 -0.56524537 0 0 Z " fill="#F7F7F7" transform="translate(385,24)"/>
<path d="M0 0 C2.27734375 1.01953125 2.27734375 1.01953125 4 2 C2.68938409 6.23429756 1.05643741 10.07407404 -1 14 C-2.2375 13.79375 -3.475 13.5875 -4.75 13.375 C-8.10672761 12.95318113 -10.19498408 12.8681879 -13 15 C-14.20270964 17.40541929 -14.20316663 19.10366591 -14.31640625 21.7890625 C-14.37924805 23.20058594 -14.37924805 23.20058594 -14.44335938 24.640625 C-14.50233398 26.11789063 -14.50233398 26.11789063 -14.5625 27.625 C-14.60568359 28.61757813 -14.64886719 29.61015625 -14.69335938 30.6328125 C-14.79960947 33.08837033 -14.90032455 35.54416651 -15 38 C-19.29 38 -23.58 38 -28 38 C-28 25.79 -28 13.58 -28 1 C-23.71 1 -19.42 1 -15 1 C-14.67 1.66 -14.34 2.32 -14 3 C-13.360625 2.505 -12.72125 2.01 -12.0625 1.5 C-8.01984662 -0.48007513 -4.43707311 -0.61118896 0 0 Z " fill="#F6F6F6" transform="translate(269,24)"/>
<path d="M0 0 C4.29 0 8.58 0 13 0 C13 12.21 13 24.42 13 37 C8.71 37 4.42 37 0 37 C0 24.79 0 12.58 0 0 Z " fill="#F8F8F8" transform="translate(398,25)"/>
<path d="M0 0 C1.91015625 0.4765625 1.91015625 0.4765625 4.47265625 2.4765625 C6.3762806 6.44934375 6.30373984 9.32278431 4.91015625 13.4765625 C2.65942419 16.14409679 1.36570086 16.41961942 -2.08984375 16.8515625 C-5.54538836 16.41961942 -6.83911169 16.14409679 -9.08984375 13.4765625 C-10.48342734 9.32278431 -10.5559681 6.44934375 -8.65234375 2.4765625 C-5.58196682 0.08017075 -3.82186082 -0.27145927 0 0 Z " fill="#F0F0F0" transform="translate(407.08984375,2.5234375)"/>
</svg>
